<?xml version="1.0" encoding="utf-8"?>
<!-- Generator: Adobe Illustrator 16.0.2, SVG Export Plug-In . SVG Version: 6.00 Build 0)  -->
<!DOCTYPE svg PUBLIC "-//W3C//DTD SVG 1.1//EN" "http://www.w3.org/Graphics/SVG/1.1/DTD/svg11.dtd">
<svg version="1.1" id="Слой_1" xmlns="http://www.w3.org/2000/svg" xmlns:xlink="http://www.w3.org/1999/xlink" x="0px" y="0px"
	 width="56.69px" height="56.69px" viewBox="0 0 56.69 56.69" enable-background="new 0 0 56.69 56.69" xml:space="preserve">
<g>
	<g>
		<path fill="#3E5E9A" d="M50.253,28.344c0-0.548-0.041-1.085-0.082-1.623c2.143-0.684,3.836-1.335,4.928-1.918l-0.395-2.209
			c-1.225-0.176-3.041-0.214-5.283-0.131c-0.299-1.055-0.67-2.073-1.119-3.055c1.771-1.367,3.139-2.554,3.963-3.471l-1.131-1.942
			c-1.213,0.25-2.936,0.831-5.018,1.671c-0.639-0.881-1.336-1.719-2.098-2.494c1.193-1.885,2.066-3.462,2.525-4.602l-1.732-1.442
			c-1.051,0.645-2.463,1.77-4.123,3.26c-0.9-0.61-1.857-1.138-2.848-1.611c0.475-2.18,0.752-3.962,0.787-5.191l-2.123-0.766
			c-0.77,0.965-1.709,2.507-2.762,4.479c-1.049-0.265-2.119-0.476-3.225-0.583c-0.309-2.201-0.66-3.962-1.047-5.126h-2.258
			c-0.388,1.164-0.739,2.926-1.046,5.126c-1.104,0.108-2.175,0.319-3.225,0.583c-1.051-1.971-1.992-3.514-2.759-4.479l-2.125,0.766
			c0.037,1.229,0.315,3.01,0.788,5.191c-0.989,0.474-1.947,1.001-2.847,1.611c-1.66-1.491-3.073-2.615-4.124-3.26l-1.73,1.442
			c0.457,1.139,1.332,2.717,2.524,4.602c-0.763,0.776-1.459,1.613-2.099,2.495c-2.082-0.84-3.802-1.42-5.016-1.67l-1.13,1.941
			c0.824,0.917,2.189,2.104,3.96,3.47c-0.448,0.982-0.82,2.002-1.118,3.055c-2.244-0.083-4.06-0.045-5.285,0.132l-0.392,2.209
			c1.092,0.581,2.786,1.233,4.926,1.917c-0.04,0.539-0.083,1.075-0.083,1.624c0,0.548,0.042,1.087,0.082,1.624
			c-2.139,0.684-3.833,1.336-4.925,1.918l0.393,2.207c1.225,0.178,3.041,0.217,5.285,0.133c0.298,1.055,0.67,2.072,1.118,3.055
			c-1.771,1.367-3.137,2.555-3.96,3.471l1.13,1.941c1.214-0.25,2.934-0.83,5.016-1.672c0.64,0.883,1.336,1.721,2.099,2.496
			c-1.192,1.885-2.067,3.461-2.524,4.602l1.731,1.441c1.051-0.646,2.462-1.771,4.124-3.262c0.9,0.611,1.857,1.139,2.847,1.611
			c-0.474,2.182-0.751,3.963-0.788,5.191l2.124,0.766c0.768-0.963,1.709-2.508,2.76-4.479c1.051,0.266,2.12,0.477,3.225,0.586
			c0.307,2.199,0.659,3.961,1.046,5.125h2.26c0.387-1.164,0.74-2.926,1.045-5.125c1.105-0.109,2.176-0.32,3.227-0.586
			c1.051,1.973,1.992,3.516,2.762,4.479l2.123-0.766c-0.035-1.23-0.313-3.012-0.789-5.191c0.992-0.475,1.949-1,2.848-1.611
			c1.662,1.49,3.074,2.615,4.125,3.262l1.73-1.441c-0.457-1.141-1.332-2.717-2.523-4.602c0.762-0.775,1.457-1.613,2.098-2.496
			c2.082,0.842,3.805,1.422,5.016,1.672l1.131-1.941c-0.824-0.916-2.189-2.104-3.961-3.471c0.447-0.98,0.82-2.002,1.119-3.055
			c2.244,0.084,4.061,0.045,5.285-0.133l0.391-2.207c-1.092-0.582-2.785-1.234-4.926-1.918
			C50.212,29.43,50.253,28.892,50.253,28.344z M28.343,46.738c-10.158,0-18.393-8.236-18.393-18.395
			c0-10.159,8.235-18.394,18.393-18.394c10.158,0,18.395,8.234,18.395,18.394C46.737,38.502,38.501,46.738,28.343,46.738z
			 M28.343,16.639c-6.463,0-11.705,5.24-11.705,11.705s5.24,11.705,11.705,11.705c6.465,0,11.705-5.24,11.705-11.705
			C40.048,21.88,34.808,16.639,28.343,16.639z M28.343,33.361c-2.771,0-5.016-2.246-5.016-5.018s2.246-5.018,5.016-5.018
			s5.018,2.246,5.018,5.018S31.114,33.361,28.343,33.361z"/>
	</g>
</g>
</svg>
