<?xml version="1.0" encoding="utf-8"?>
<!-- Generator: Adobe Illustrator 16.0.2, SVG Export Plug-In . SVG Version: 6.00 Build 0)  -->
<!DOCTYPE svg PUBLIC "-//W3C//DTD SVG 1.1//EN" "http://www.w3.org/Graphics/SVG/1.1/DTD/svg11.dtd">
<svg version="1.1" id="cog2" xmlns="http://www.w3.org/2000/svg" xmlns:xlink="http://www.w3.org/1999/xlink" x="0px" y="0px"
	 width="96px" height="96px" viewBox="0 0 96 96" enable-background="new 0 0 96 96" xml:space="preserve">
<g>
	<g>
		<path fill="#FEBE29" d="M86.833,47.999c0-0.971-0.073-1.923-0.146-2.876c3.797-1.212,6.799-2.366,8.732-3.399l-0.698-3.916
			c-2.17-0.312-5.39-0.379-9.363-0.232c-0.53-1.868-1.189-3.674-1.984-5.415c3.141-2.422,5.563-4.525,7.022-6.15l-2.003-3.442
			c-2.151,0.443-5.202,1.473-8.893,2.962c-1.132-1.563-2.368-3.047-3.72-4.421c2.116-3.341,3.662-6.136,4.476-8.157l-3.07-2.556
			c-1.86,1.143-4.365,3.137-7.306,5.778c-1.597-1.081-3.293-2.017-5.048-2.855c0.841-3.864,1.331-7.022,1.396-9.201l-3.764-1.358
			c-1.363,1.71-3.028,4.443-4.895,7.938c-1.859-0.47-3.756-0.844-5.717-1.033c-0.546-3.901-1.169-7.022-1.854-9.085h-4.003
			c-0.688,2.063-1.311,5.186-1.854,9.085c-1.957,0.191-3.855,0.565-5.716,1.033c-1.863-3.494-3.531-6.229-4.891-7.938L29.769,4.12
			c0.066,2.178,0.559,5.334,1.397,9.201c-1.752,0.84-3.45,1.774-5.046,2.855c-2.941-2.642-5.446-4.635-7.309-5.778l-3.067,2.556
			c0.811,2.019,2.361,4.815,4.475,8.157c-1.353,1.375-2.586,2.858-3.721,4.422c-3.69-1.489-6.739-2.518-8.891-2.96l-2.002,3.44
			c1.46,1.626,3.88,3.729,7.019,6.149c-0.794,1.742-1.453,3.548-1.982,5.415c-3.977-0.147-7.196-0.08-9.367,0.234l-0.695,3.915
			c1.935,1.03,4.938,2.187,8.73,3.398c-0.071,0.956-0.147,1.906-0.147,2.878c0,0.971,0.074,1.925,0.146,2.877
			c-3.791,1.213-6.794,2.367-8.729,3.399l0.697,3.913c2.17,0.315,5.39,0.383,9.367,0.235c0.529,1.87,1.188,3.673,1.982,5.414
			c-3.139,2.424-5.561,4.526-7.019,6.152l2.003,3.44c2.151-0.442,5.2-1.471,8.891-2.963c1.135,1.564,2.368,3.05,3.721,4.422
			c-2.114,3.343-3.665,6.137-4.474,8.158l3.068,2.553c1.862-1.144,4.364-3.138,7.31-5.779c1.595,1.084,3.292,2.017,5.045,2.856
			c-0.84,3.864-1.331,7.023-1.396,9.199l3.765,1.358c1.361-1.706,3.029-4.444,4.892-7.938c1.863,0.471,3.758,0.845,5.716,1.037
			c0.543,3.897,1.167,7.021,1.854,9.083h4.006c0.686-2.063,1.313-5.186,1.853-9.083c1.959-0.192,3.856-0.566,5.719-1.037
			c1.86,3.496,3.531,6.231,4.894,7.938l3.765-1.358c-0.064-2.179-0.554-5.336-1.398-9.199c1.757-0.842,3.453-1.772,5.047-2.856
			c2.944,2.642,5.449,4.636,7.312,5.779l3.065-2.553c-0.811-2.021-2.359-4.815-4.471-8.158c1.35-1.372,2.582-2.857,3.718-4.422
			c3.69,1.492,6.741,2.521,8.888,2.963l2.005-3.44c-1.459-1.626-3.879-3.729-7.02-6.152c0.793-1.739,1.454-3.548,1.982-5.414
			c3.978,0.147,7.198,0.08,9.367-0.235l0.694-3.913c-1.936-1.032-4.937-2.187-8.73-3.397C86.76,49.924,86.833,48.971,86.833,47.999z
			 M47.999,80.603c-18.005,0-32.601-14.599-32.601-32.604c0-18.006,14.596-32.602,32.601-32.602
			c18.003,0,32.603,14.594,32.603,32.602C80.602,66.002,66.002,80.603,47.999,80.603z M47.999,27.253
			c-11.457,0-20.747,9.288-20.747,20.746c0,11.457,9.288,20.747,20.747,20.747s20.747-9.29,20.747-20.747
			C68.745,36.542,59.457,27.253,47.999,27.253z M47.999,56.893c-4.912,0-8.891-3.981-8.891-8.894c0-4.911,3.981-8.892,8.891-8.892
			c4.909,0,8.893,3.981,8.893,8.892C56.892,52.911,52.911,56.893,47.999,56.893z"/>
	</g>
</g>
</svg>
