<?xml version="1.0" encoding="utf-8"?>
<!-- Generator: Adobe Illustrator 16.0.2, SVG Export Plug-In . SVG Version: 6.00 Build 0)  -->
<!DOCTYPE svg PUBLIC "-//W3C//DTD SVG 1.1//EN" "http://www.w3.org/Graphics/SVG/1.1/DTD/svg11.dtd">
<svg version="1.1" id="Слой_1" xmlns="http://www.w3.org/2000/svg" xmlns:xlink="http://www.w3.org/1999/xlink" x="0px" y="0px"
	 width="180px" height="50px" viewBox="0 0 180 50" enable-background="new 0 0 180 50" xml:space="preserve">
<g>
	<path fill="#FFFFFF" d="M40.504,37.591c0.239,0.639,0.494,1.23,0.764,1.768c0.27,0.541,0.594,1.012,0.97,1.41
		c0.378,0.4,0.818,0.707,1.321,0.922s1.096,0.32,1.779,0.32c0.432,0,0.824-0.074,1.178-0.221c0.353-0.146,0.681-0.367,0.981-0.662
		c0.297-0.297,0.531-0.645,0.7-1.043c0.167-0.398,0.252-0.836,0.252-1.314c0-0.604-0.111-1.107-0.333-1.52
		c-0.221-0.41-0.509-0.748-0.862-1.012c-0.354-0.268-0.729-0.514-1.123-0.738c-0.396-0.229-0.834-0.449-1.312-0.672
		c-0.54-0.244-1.103-0.523-1.689-0.84c-0.587-0.313-1.112-0.691-1.575-1.141c-0.46-0.449-0.814-0.941-1.06-1.482
		c-0.246-0.539-0.368-1.172-0.368-1.896c0-0.773,0.152-1.455,0.459-2.056c0.304-0.594,0.718-1.094,1.24-1.5
		c0.52-0.405,1.146-0.71,1.877-0.921c0.731-0.208,1.485-0.313,2.263-0.313c0.755,0,1.454,0.058,2.096,0.175
		c0.64,0.116,1.338,0.273,2.094,0.469c-0.036,0.394-0.065,0.759-0.092,1.095c-0.022,0.342-0.037,0.67-0.042,0.994
		c-0.007,0.327-0.013,0.659-0.02,0.997c-0.005,0.336-0.009,0.703-0.009,1.094l-0.826,0.076c-0.106-1.303-0.496-2.271-1.159-2.901
		c-0.665-0.633-1.547-0.948-2.651-0.948c-0.311,0-0.646,0.065-1.006,0.201c-0.359,0.135-0.67,0.329-0.935,0.571
		c-0.261,0.246-0.469,0.549-0.62,0.902c-0.151,0.353-0.224,0.755-0.224,1.196c0,0.588,0.091,1.082,0.278,1.48
		c0.186,0.398,0.44,0.725,0.763,0.969c0.326,0.244,0.699,0.469,1.124,0.672c0.425,0.201,0.872,0.406,1.338,0.617
		c0.577,0.258,1.174,0.568,1.799,0.93c0.623,0.361,1.135,0.748,1.537,1.16c0.401,0.412,0.746,0.898,1.032,1.463
		c0.29,0.566,0.434,1.225,0.434,1.975c0,0.834-0.17,1.576-0.504,2.219c-0.337,0.645-0.778,1.193-1.331,1.639
		c-0.55,0.451-1.208,0.793-1.968,1.023c-0.76,0.23-1.519,0.352-2.275,0.352c-0.657,0-1.341-0.068-2.047-0.205
		c-0.707-0.133-1.469-0.316-2.283-0.549c-0.083-0.813-0.187-1.576-0.304-2.285c-0.121-0.713-0.283-1.479-0.487-2.285L40.504,37.591z
		"/>
	<path fill="#FFFFFF" d="M59.521,25.085c0.527,0,1.076-0.003,1.644-0.01c0.569-0.007,1.179-0.01,1.823-0.01
		c0.661,0,1.343-0.003,2.051-0.01c0.707-0.004,1.433-0.008,2.175-0.008c-0.036,0.454-0.069,0.861-0.1,1.224
		c-0.029,0.363-0.054,0.721-0.07,1.068c-0.019,0.347-0.033,0.702-0.036,1.058c-0.007,0.359-0.01,0.742-0.01,1.16l-0.755,0.039
		c-0.108-0.662-0.225-1.223-0.35-1.678c-0.126-0.452-0.309-0.823-0.548-1.112c-0.241-0.289-0.564-0.492-0.97-0.619
		c-0.409-0.121-0.948-0.184-1.619-0.184h-2.013V40.39c0,0.293,0.025,0.539,0.072,0.736c0.048,0.195,0.156,0.357,0.324,0.488
		c0.168,0.129,0.421,0.223,0.763,0.283c0.34,0.063,0.805,0.105,1.394,0.129l-0.036,0.703c-0.251,0-0.536-0.006-0.853-0.014
		c-0.317-0.006-0.645-0.008-0.982-0.008c-0.333,0-0.696-0.004-1.085-0.01c-0.389-0.008-0.729-0.01-1.016-0.01
		c-0.371,0-0.698,0.002-0.979,0.01c-0.281,0.006-0.565,0.01-0.854,0.01c-0.288,0-0.576,0.002-0.862,0.008
		c-0.289,0.008-0.546,0.014-0.773,0.014L55.8,42.063c0.553-0.037,0.996-0.092,1.331-0.166c0.335-0.072,0.588-0.195,0.755-0.367
		s0.278-0.4,0.332-0.689c0.054-0.289,0.08-0.666,0.08-1.133V26.004h-1.959c-0.67,0-1.213,0.063-1.625,0.186
		c-0.414,0.125-0.746,0.33-0.998,0.619c-0.252,0.287-0.445,0.658-0.576,1.112c-0.131,0.455-0.252,1.014-0.359,1.676l-0.756-0.037
		v-1.162c0-0.551-0.006-1.077-0.026-1.581c-0.019-0.502-0.056-1.092-0.118-1.767c0.743,0,1.462,0.003,2.159,0.008
		c0.693,0.007,1.367,0.01,2.011,0.01c0.647,0,1.251,0.003,1.809,0.01C58.416,25.082,58.97,25.085,59.521,25.085z"/>
	<path fill="#FFFFFF" d="M78.3,36.21h-5.697l-1.382,3.609c-0.24,0.699-0.361,1.141-0.361,1.324c0,0.293,0.149,0.504,0.442,0.625
		c0.294,0.125,0.817,0.205,1.573,0.242l-0.054,0.699c-0.443,0-0.94-0.008-1.492-0.021c-0.551-0.012-1.11-0.016-1.673-0.016
		c-0.441,0-0.901,0.004-1.374,0.016c-0.474,0.014-0.932,0.021-1.375,0.021l-0.038-0.666c0.471-0.033,0.854-0.092,1.153-0.172
		c0.298-0.08,0.56-0.225,0.78-0.422c0.223-0.207,0.434-0.494,0.63-0.867c0.198-0.379,0.426-0.877,0.692-1.502l5.158-12.472
		c0.144-0.367,0.268-0.689,0.369-0.965c0.102-0.276,0.213-0.573,0.332-0.895l1.257-0.148c0.133,0.592,0.273,1.128,0.424,1.623
		c0.148,0.49,0.29,0.938,0.423,1.342l4.042,12.013c0.18,0.541,0.342,0.961,0.484,1.27c0.144,0.311,0.313,0.537,0.503,0.691
		c0.193,0.152,0.436,0.262,0.729,0.322c0.292,0.061,0.674,0.109,1.142,0.146l-0.056,0.699c-0.502,0-1.057-0.008-1.662-0.021
		c-0.605-0.012-1.256-0.016-1.951-0.016c-0.67,0-1.264,0.004-1.778,0.016c-0.517,0.014-1.025,0.021-1.529,0.021l-0.054-0.666
		c0.67-0.049,1.149-0.123,1.439-0.229c0.288-0.104,0.432-0.314,0.432-0.635c0-0.137-0.026-0.291-0.074-0.471
		c-0.047-0.178-0.108-0.377-0.178-0.598L78.3,36.21z M73.019,35.103h4.942l-2.247-6.924L73.019,35.103z"/>
	<path fill="#FFFFFF" d="M90.379,40.351c0,0.297,0.019,0.545,0.052,0.744c0.039,0.207,0.138,0.375,0.298,0.51
		c0.162,0.139,0.396,0.236,0.712,0.305c0.309,0.068,0.748,0.107,1.311,0.121l-0.035,0.701c-0.574,0-1.176-0.01-1.798-0.02
		c-0.623-0.012-1.306-0.021-2.047-0.021c-0.313,0-0.607,0.006-0.882,0.012c-0.276,0.006-0.551,0.01-0.826,0.01
		c-0.265,0-0.517,0-0.755,0.008c-0.239,0.006-0.445,0.014-0.611,0.014l-0.036-0.666c0.468-0.037,0.84-0.094,1.122-0.174
		c0.284-0.08,0.5-0.201,0.657-0.369c0.157-0.168,0.26-0.393,0.314-0.682c0.056-0.289,0.082-0.666,0.082-1.135V27.387
		c0-0.295-0.026-0.539-0.072-0.736c-0.049-0.195-0.147-0.359-0.297-0.486c-0.149-0.129-0.374-0.227-0.674-0.286
		c-0.297-0.063-0.7-0.105-1.203-0.131l0.036-0.698c0.193,0,0.415,0.003,0.674,0.008c0.258,0.007,0.536,0.01,0.837,0.01
		c0.298,0,0.625,0.003,0.978,0.01c0.354,0.006,0.674,0.01,0.961,0.01c0.648,0,1.216-0.034,1.702-0.102
		c0.481-0.068,0.896-0.104,1.229-0.104c0.803,0,1.563,0.064,2.281,0.185c0.719,0.122,1.367,0.344,1.949,0.665
		c0.58,0.321,1.053,0.75,1.41,1.299c0.359,0.545,0.539,1.241,0.539,2.089c0,0.564-0.086,1.102-0.26,1.604
		c-0.174,0.504-0.416,0.961-0.729,1.373s-0.68,0.771-1.104,1.086c-0.428,0.314-0.896,0.568-1.41,0.766
		c0.381,0.748,0.76,1.469,1.133,2.154c0.369,0.689,0.715,1.316,1.031,1.891c0.318,0.566,0.607,1.066,0.863,1.5
		c0.258,0.43,0.471,0.766,0.639,1.012c0.227,0.32,0.424,0.568,0.594,0.746c0.168,0.178,0.35,0.32,0.549,0.424
		c0.195,0.104,0.428,0.182,0.691,0.23c0.262,0.051,0.605,0.09,1.023,0.129l-0.035,0.703c-0.361,0-0.832-0.012-1.414-0.021
		c-0.58-0.012-1.184-0.02-1.805-0.02c-0.334,0-0.604,0.004-0.799,0.01c-0.199,0.006-0.383,0.016-0.551,0.027
		c-0.119-0.26-0.307-0.637-0.557-1.135c-0.254-0.5-0.553-1.074-0.898-1.732c-0.35-0.652-0.729-1.369-1.148-2.145
		c-0.42-0.773-0.857-1.559-1.314-2.354c-0.07-0.125-0.141-0.234-0.207-0.334c-0.063-0.1-0.15-0.182-0.25-0.25
		c-0.102-0.064-0.221-0.119-0.352-0.154s-0.287-0.057-0.469-0.057h-0.285c-0.1,0-0.217-0.006-0.351-0.012
		c-0.141-0.006-0.307-0.014-0.497-0.023L90.379,40.351L90.379,40.351z M90.379,33.61c0.097,0.014,0.19,0.021,0.288,0.029
		c0.098,0.004,0.191,0.01,0.287,0.01h0.323c1.244,0,2.258-0.326,3.029-0.979c0.77-0.648,1.158-1.721,1.158-3.205
		c0-1.229-0.367-2.13-1.104-2.708c-0.736-0.576-1.633-0.866-2.689-0.866c-0.205,0-0.408,0.037-0.623,0.103
		c-0.206,0.068-0.358,0.169-0.456,0.304c-0.092,0.139-0.154,0.301-0.176,0.5c-0.024,0.195-0.038,0.416-0.038,0.66L90.379,33.61
		L90.379,33.61z"/>
	<path fill="#FFFFFF" d="M109.035,25.085c0.525,0,1.076-0.003,1.646-0.01c0.566-0.007,1.178-0.01,1.824-0.01
		c0.656,0,1.342-0.003,2.049-0.01c0.707-0.004,1.432-0.008,2.174-0.008c-0.033,0.454-0.068,0.861-0.104,1.224
		c-0.023,0.363-0.051,0.721-0.07,1.068c-0.014,0.347-0.025,0.702-0.031,1.058c-0.006,0.359-0.01,0.742-0.01,1.16l-0.758,0.039
		c-0.104-0.662-0.223-1.223-0.35-1.678c-0.129-0.452-0.307-0.823-0.547-1.112c-0.238-0.289-0.564-0.492-0.971-0.619
		c-0.408-0.121-0.945-0.184-1.617-0.184h-2.02V40.39c0,0.293,0.027,0.539,0.076,0.736c0.049,0.195,0.156,0.357,0.324,0.488
		c0.166,0.129,0.422,0.223,0.762,0.283c0.344,0.063,0.809,0.105,1.395,0.129l-0.035,0.703c-0.252,0-0.537-0.006-0.855-0.014
		c-0.316-0.006-0.645-0.008-0.979-0.008c-0.336,0-0.699-0.004-1.09-0.01c-0.391-0.008-0.727-0.01-1.016-0.01
		c-0.373,0-0.693,0.002-0.979,0.01c-0.283,0.006-0.566,0.01-0.854,0.01c-0.289,0-0.574,0.002-0.861,0.008
		c-0.285,0.008-0.545,0.014-0.771,0.014l-0.053-0.666c0.551-0.037,0.994-0.092,1.328-0.166c0.336-0.072,0.588-0.195,0.754-0.367
		c0.168-0.172,0.279-0.4,0.334-0.689c0.053-0.289,0.078-0.666,0.078-1.133V26.004h-1.955c-0.67,0-1.213,0.063-1.627,0.186
		c-0.414,0.125-0.746,0.33-0.998,0.619c-0.252,0.287-0.443,0.658-0.578,1.112c-0.131,0.455-0.25,1.014-0.357,1.676l-0.754-0.037
		v-1.162c0-0.551-0.01-1.077-0.027-1.581c-0.018-0.502-0.057-1.092-0.117-1.767c0.742,0,1.461,0.003,2.158,0.008
		c0.693,0.007,1.365,0.01,2.01,0.01c0.65,0,1.254,0.003,1.811,0.01C107.932,25.082,108.484,25.085,109.035,25.085z"/>
</g>
<g>
	<path fill="#FFFFFF" d="M8.083,29.628c1.158,0,2.191,0.178,3.104,0.529c0.911,0.354,1.69,0.855,2.338,1.508
		c0.647,0.654,1.154,1.441,1.517,2.361c0.363,0.918,0.546,1.951,0.546,3.096c0,1-0.153,1.932-0.463,2.797
		c-0.309,0.861-0.737,1.627-1.287,2.297c-0.546,0.668-1.201,1.223-1.959,1.662c-0.757,0.439-1.599,0.736-2.524,0.889l-0.031,0.109
		c0.577,0.23,1.146,0.482,1.705,0.742c0.556,0.262,1.106,0.516,1.646,0.77c0.606,0.299,1.16,0.543,1.658,0.736
		c0.499,0.197,0.952,0.352,1.36,0.471c0.409,0.115,0.803,0.207,1.181,0.275c0.379,0.064,0.749,0.098,1.107,0.098
		c0.448,0,0.888-0.059,1.316-0.172c0.429-0.121,0.896-0.283,1.405-0.488l0.27,0.617c-0.928,0.59-1.737,1.035-2.43,1.322
		c-0.693,0.291-1.354,0.438-1.982,0.438c-0.379,0-0.723-0.033-1.03-0.096c-0.311-0.059-0.628-0.156-0.958-0.297
		c-0.329-0.139-0.68-0.314-1.053-0.525c-0.373-0.217-0.785-0.477-1.233-0.783c-0.798-0.543-1.496-0.998-2.093-1.373
		c-0.598-0.369-1.132-0.682-1.601-0.926c-0.469-0.246-0.872-0.438-1.212-0.582c-0.338-0.145-0.672-0.248-1.001-0.318
		c-0.908-0.174-1.71-0.473-2.407-0.891c-0.698-0.42-1.298-0.943-1.802-1.57c-0.503-0.627-0.893-1.355-1.174-2.178
		c-0.278-0.82-0.419-1.729-0.419-2.719c0-1.135,0.18-2.178,0.54-3.125c0.358-0.951,0.862-1.773,1.51-2.469
		c0.647-0.695,1.424-1.236,2.333-1.621C5.866,29.825,6.905,29.628,8.083,29.628z M7.995,30.483c-0.618,0-1.227,0.119-1.825,0.348
		c-0.599,0.229-1.138,0.592-1.622,1.088c-0.484,0.496-0.87,1.15-1.158,1.963c-0.291,0.809-0.435,1.797-0.435,2.963
		c0,1.371,0.17,2.521,0.508,3.449c0.339,0.93,0.773,1.67,1.302,2.223c0.528,0.553,1.104,0.945,1.727,1.186s1.218,0.359,1.787,0.359
		c0.617,0,1.22-0.113,1.809-0.344c0.587-0.229,1.115-0.594,1.583-1.086c0.469-0.498,0.844-1.152,1.122-1.963
		c0.279-0.814,0.418-1.803,0.418-2.965c0-1.369-0.163-2.52-0.494-3.447c-0.327-0.932-0.752-1.672-1.269-2.223
		c-0.52-0.555-1.083-0.947-1.691-1.189C9.15,30.606,8.563,30.483,7.995,30.483z"/>
	<path fill="#FFFFFF" d="M25.487,39.222h-4.74l-1.151,3.002c-0.2,0.584-0.298,0.949-0.298,1.105c0,0.246,0.121,0.418,0.367,0.52
		c0.243,0.104,0.68,0.17,1.308,0.199l-0.046,0.582c-0.369,0-0.781-0.006-1.241-0.016c-0.458-0.01-0.921-0.014-1.39-0.014
		c-0.368,0-0.75,0.004-1.143,0.014c-0.394,0.01-0.775,0.016-1.145,0.016l-0.03-0.549c0.39-0.033,0.707-0.082,0.957-0.15
		c0.249-0.063,0.466-0.18,0.651-0.35s0.358-0.41,0.521-0.723c0.165-0.313,0.356-0.727,0.577-1.25l4.291-10.371
		c0.12-0.307,0.221-0.572,0.306-0.805c0.085-0.229,0.177-0.479,0.277-0.742l1.046-0.125c0.109,0.494,0.228,0.943,0.352,1.352
		s0.242,0.781,0.354,1.117l3.362,9.99c0.15,0.449,0.284,0.803,0.405,1.059c0.118,0.256,0.258,0.445,0.417,0.574
		c0.16,0.127,0.361,0.217,0.605,0.27c0.245,0.049,0.561,0.092,0.95,0.121l-0.046,0.582c-0.419,0-0.88-0.008-1.383-0.016
		c-0.503-0.012-1.043-0.016-1.623-0.016c-0.557,0-1.05,0.004-1.478,0.016c-0.43,0.008-0.854,0.016-1.271,0.016l-0.045-0.551
		c0.558-0.041,0.957-0.107,1.195-0.195c0.24-0.084,0.36-0.258,0.36-0.525c0-0.111-0.02-0.242-0.059-0.391
		c-0.041-0.146-0.092-0.314-0.151-0.5L25.487,39.222z M21.092,38.3h4.111l-1.869-5.76L21.092,38.3z"/>
</g>
<rect x="25.25" y="44.226" fill="#FFFFFF" width="141.374" height="0.404"/>
<rect x="105.365" y="42.333" fill="#FFFFFF" width="66.733" height="0.4"/>
<path fill="#FFFFFF" d="M144.729,39.901c10.641,0,19.316-8.891,19.316-19.792c0-10.902-8.678-19.795-19.316-19.795
	s-19.313,8.893-19.313,19.795C125.419,31.013,134.093,39.901,144.729,39.901z"/>
<rect x="144.931" y="39.905" fill="#FFFFFF" width="34.492" height="0.402"/>
<g>
	<path fill="#344553" d="M136.837,26.379c0,0.521,0.078,0.969,0.238,1.341c0.154,0.373,0.379,0.676,0.658,0.912
		c0.285,0.236,0.6,0.41,0.945,0.521c0.344,0.111,0.67,0.168,0.975,0.168c0.381,0,0.746-0.061,1.096-0.182
		c0.346-0.117,0.65-0.309,0.924-0.574c0.266-0.264,0.471-0.604,0.619-1.021c0.145-0.418,0.215-0.922,0.215-1.506v-4.465
		c0-0.318-0.021-0.576-0.068-0.772c-0.045-0.194-0.131-0.346-0.254-0.456c-0.123-0.109-0.289-0.184-0.492-0.227
		c-0.209-0.043-0.48-0.077-0.824-0.099l0.021-0.413c0.244,0,0.543,0.004,0.895,0.01c0.35,0.007,0.715,0.011,1.098,0.011
		c0.311,0,0.635-0.006,0.975-0.017c0.34-0.01,0.621-0.016,0.854-0.016l0.008,0.392c-0.314,0.03-0.564,0.064-0.758,0.104
		c-0.197,0.039-0.352,0.117-0.469,0.232c-0.113,0.116-0.195,0.288-0.238,0.512c-0.041,0.225-0.063,0.532-0.063,0.924v4.576
		c0,0.709-0.115,1.31-0.352,1.802c-0.234,0.492-0.539,0.896-0.918,1.211c-0.379,0.316-0.805,0.545-1.283,0.686
		c-0.477,0.145-0.961,0.213-1.457,0.213c-0.488,0-0.963-0.063-1.426-0.184c-0.465-0.123-0.871-0.336-1.217-0.631
		c-0.355-0.299-0.635-0.658-0.834-1.088c-0.207-0.426-0.311-0.931-0.311-1.511v-5.78c0-0.174-0.016-0.322-0.049-0.445
		c-0.033-0.124-0.098-0.227-0.199-0.311c-0.104-0.082-0.252-0.145-0.439-0.188c-0.191-0.045-0.445-0.074-0.764-0.088l0.021-0.413
		c0.127,0,0.277,0.002,0.451,0.004c0.172,0.004,0.354,0.006,0.545,0.006c0.197,0,0.398,0.002,0.6,0.005
		c0.203,0.003,0.416,0.006,0.643,0.006c0.24,0,0.445-0.002,0.621-0.006c0.174-0.003,0.348-0.005,0.521-0.005
		c0.178,0,0.344-0.001,0.504-0.006c0.16-0.002,0.297-0.004,0.422-0.004l0.029,0.392c-0.305,0.021-0.553,0.057-0.742,0.109
		c-0.188,0.05-0.336,0.129-0.445,0.238c-0.105,0.11-0.18,0.252-0.219,0.429c-0.035,0.178-0.055,0.401-0.055,0.669L136.837,26.379
		L136.837,26.379z"/>
</g>
<g>
	<path fill="#344553" d="M147.966,24.595c0,0.243,0.016,0.448,0.047,0.615c0.027,0.167,0.117,0.308,0.27,0.419
		c0.145,0.111,0.367,0.196,0.674,0.252c0.301,0.055,0.725,0.088,1.268,0.1l-0.027,0.579c-0.531,0-1.096-0.004-1.68-0.018
		c-0.582-0.01-1.18-0.014-1.795-0.014c-0.258,0-0.5,0-0.725,0.006c-0.23,0.006-0.459,0.008-0.686,0.008
		c-0.221,0-0.426,0.004-0.625,0.01s-0.367,0.008-0.504,0.008l-0.033-0.547c0.391-0.032,0.695-0.081,0.932-0.146
		c0.23-0.065,0.414-0.168,0.541-0.304c0.129-0.135,0.213-0.326,0.262-0.564c0.043-0.237,0.066-0.55,0.066-0.936V13.883
		c0-0.245-0.021-0.446-0.064-0.61c-0.039-0.161-0.117-0.297-0.242-0.402c-0.123-0.107-0.311-0.186-0.555-0.237
		c-0.248-0.051-0.584-0.086-0.994-0.105l0.029-0.578c0.154,0,0.342,0.002,0.553,0.006c0.215,0.005,0.443,0.008,0.693,0.008
		c0.242,0,0.516,0.002,0.807,0.007c0.291,0.007,0.561,0.008,0.795,0.008c0.494,0,0.938-0.025,1.322-0.076
		c0.385-0.051,0.801-0.078,1.244-0.078c0.771,0,1.479,0.073,2.115,0.214c0.643,0.143,1.201,0.375,1.68,0.701
		c0.48,0.324,0.867,0.752,1.15,1.285c0.285,0.532,0.432,1.184,0.432,1.955c0,0.781-0.156,1.46-0.475,2.04
		c-0.318,0.578-0.729,1.061-1.232,1.446c-0.506,0.384-1.068,0.674-1.689,0.867c-0.625,0.193-1.283,0.289-1.979,0.289
		c-0.375,0-0.686-0.026-0.924-0.076c-0.242-0.052-0.459-0.117-0.648-0.199L147.966,24.595L147.966,24.595z M147.966,19.559
		c0.229,0.07,0.436,0.124,0.621,0.159c0.191,0.036,0.439,0.054,0.76,0.054c0.287,0,0.625-0.062,1.01-0.184
		c0.389-0.121,0.746-0.322,1.076-0.601c0.334-0.279,0.609-0.657,0.824-1.134c0.219-0.476,0.328-1.074,0.328-1.795
		c0-1.166-0.314-2.024-0.932-2.571c-0.617-0.548-1.41-0.822-2.381-0.822c-0.287,0-0.514,0.021-0.668,0.061
		c-0.16,0.042-0.291,0.104-0.393,0.19c-0.107,0.087-0.174,0.201-0.201,0.342c-0.031,0.143-0.047,0.32-0.047,0.534L147.966,19.559
		L147.966,19.559z"/>
</g>
<polygon fill="#4B5C66" stroke="#FFFFFF" stroke-width="0.216" stroke-miterlimit="22.9256" points="172.499,5.209 144.562,32.704 
	129.782,27.104 145.38,39.505 "/>
</svg>
