<?xml version="1.0" encoding="utf-8"?>
<!-- Generator: Adobe Illustrator 17.0.0, SVG Export Plug-In . SVG Version: 6.00 Build 0)  -->
<!DOCTYPE svg PUBLIC "-//W3C//DTD SVG 1.1//EN" "http://www.w3.org/Graphics/SVG/1.1/DTD/svg11.dtd">
<svg version="1.1" id="Layer_1" xmlns="http://www.w3.org/2000/svg" xmlns:xlink="http://www.w3.org/1999/xlink" x="0px" y="0px"
	 width="35px" height="35px" viewBox="0 0 35 35" enable-background="new 0 0 35 35" xml:space="preserve">
<path fill="#F1685E" d="M5.657,23.859c-1.099-1.884-1.731-4.07-1.731-6.406c0-2.378,0.655-4.603,1.789-6.508
	C4.591,10.128,3.692,9.02,3.143,7.723C1.167,10.461,0,13.819,0,17.454c0,3.612,1.154,6.953,3.107,9.68
	C3.643,25.82,4.533,24.692,5.657,23.859z"/>
<path fill="#F1685E" d="M17.922,4.727c0,0.021-0.004,0.042-0.004,0.063c3.933,0.389,7.337,2.568,9.393,5.71
	c0.993-0.468,2.098-0.738,3.271-0.738c0.293,0,0.581,0.02,0.865,0.053c-2.741-5.302-8.246-8.939-14.61-9.009
	C17.522,1.954,17.922,3.293,17.922,4.727z"/>
<path fill="#F1685E" d="M30.582,25.145c-1.173,0-2.277-0.27-3.271-0.738c-2.056,3.145-5.462,5.324-9.395,5.712
	c-0.015,1.464-0.445,2.826-1.168,3.986c6.4-0.036,11.945-3.687,14.699-9.013C31.163,25.124,30.875,25.145,30.582,25.145z"/>
<circle fill="#F1685E" cx="30.422" cy="17.306" r="4.647"/>
<circle fill="#F1685E" cx="10.363" cy="30.127" r="4.646"/>
<circle fill="#F1685E" cx="10.363" cy="4.647" r="4.647"/>
</svg>
