<?xml version="1.0" encoding="utf-8"?>
<!-- Generator: Adobe Illustrator 17.0.0, SVG Export Plug-In . SVG Version: 6.00 Build 0)  -->
<!DOCTYPE svg PUBLIC "-//W3C//DTD SVG 1.1//EN" "http://www.w3.org/Graphics/SVG/1.1/DTD/svg11.dtd">
<svg version="1.1" id="Layer_1" xmlns="http://www.w3.org/2000/svg" xmlns:xlink="http://www.w3.org/1999/xlink" x="0px" y="0px"
	 width="35px" height="35px" viewBox="0 0 35 35" enable-background="new 0 0 35 35" xml:space="preserve">
<polygon fill="#31C62C" points="14.942,21.496 2.622,21.496 2.622,5.505 24.903,5.505 24.903,10.092 27.394,10.748 27.394,0 0,0 
	0,23.855 15.86,23.855 "/>
<rect x="4.588" y="11.928" fill="#31C62C" width="2.621" height="5.898"/>
<rect x="8.651" y="9.044" fill="#31C62C" width="2.491" height="8.782"/>
<rect x="12.713" y="14.877" fill="#31C62C" width="2.491" height="2.949"/>
<path fill="#31C62C" d="M33.847,26.938L29.33,22.48c0.597-0.977,0.947-2.117,0.947-3.346c0-3.545-2.875-6.42-6.422-6.42
	c-3.548,0-6.424,2.875-6.424,6.42c0,3.549,2.876,6.425,6.424,6.425c1.179,0,2.279-0.323,3.229-0.878l4.555,4.496L33.847,26.938z
	 M19.922,19.135c0-2.171,1.761-3.929,3.934-3.929c2.171,0,3.931,1.758,3.931,3.929c0,2.174-1.76,3.934-3.931,3.934
	C21.683,23.068,19.922,21.309,19.922,19.135z"/>
</svg>
