<?xml version="1.0" encoding="utf-8"?>
<!-- Generator: Adobe Illustrator 17.0.0, SVG Export Plug-In . SVG Version: 6.00 Build 0)  -->
<!DOCTYPE svg PUBLIC "-//W3C//DTD SVG 1.1//EN" "http://www.w3.org/Graphics/SVG/1.1/DTD/svg11.dtd">
<svg version="1.1" id="Layer_1" xmlns="http://www.w3.org/2000/svg" xmlns:xlink="http://www.w3.org/1999/xlink" x="0px" y="0px"
	 width="32px" height="32px" viewBox="0 0 32 32" enable-background="new 0 0 32 32" xml:space="preserve">
<path fill="#6A2993" d="M0,0v22.437h29.302V0H0z M26.667,19.615H2.757V2.33h23.91V19.615z"/>
<polygon fill="#6A2993" points="7.417,8.213 8.766,6.866 13.301,11.218 8.889,15.571 7.417,13.733 10.361,11.218 "/>
<rect x="14.651" y="13.363" fill="#6A2993" width="6.377" height="1.594"/>
<path fill="#6A2993" d="M0,25.256V32h29.302v-6.744H0z M1.655,30.405l1.349-3.433h1.717l-1.717,3.433H1.655z M4.188,30.405
	l1.35-3.433h1.715l-1.715,3.433H4.188z M6.845,30.405l1.348-3.433H9.91l-1.716,3.433H6.845z M9.379,30.405l1.348-3.433h1.716
	l-1.716,3.433H9.379z M13.385,30.405h-1.349l1.349-3.433h1.716L13.385,30.405z M25.932,29.958c-0.736,0-1.331-0.598-1.331-1.331
	c0-0.731,0.595-1.326,1.331-1.326c0.732,0,1.328,0.595,1.328,1.326C27.26,29.36,26.665,29.958,25.932,29.958z"/>
</svg>
