<?xml version="1.0" encoding="utf-8"?>
<!-- Generator: Adobe Illustrator 17.0.0, SVG Export Plug-In . SVG Version: 6.00 Build 0)  -->
<!DOCTYPE svg PUBLIC "-//W3C//DTD SVG 1.1//EN" "http://www.w3.org/Graphics/SVG/1.1/DTD/svg11.dtd">
<svg version="1.1" id="Layer_1" xmlns="http://www.w3.org/2000/svg" xmlns:xlink="http://www.w3.org/1999/xlink" x="0px" y="0px"
	 width="35px" height="35px" viewBox="0 0 35 35" enable-background="new 0 0 35 35" xml:space="preserve">
<path fill="#FEBE29" d="M17.393,0C12.514,0,8.108,1.984,4.946,5.174l-3.014-2.99l-1.787,9.813l10.123-1.543L7.223,7.433
	c2.543-2.53,6.066-4.099,9.963-4.099c7.755,0,14.046,6.208,14.046,13.868c0,7.661-6.291,13.868-14.046,13.868
	c-7.556,0-13.716-5.889-14.031-13.273L0,18.19c0.519,9.039,8.106,16.213,17.393,16.213c9.62,0,17.421-7.703,17.421-17.202
	C34.813,7.701,27.013,0,17.393,0z"/>
<ellipse fill="#FEBE29" cx="17.347" cy="12.174" rx="6.218" ry="2.117"/>
<path fill="#FEBE29" d="M22.726,22.231c-1.074,0.631-3.077,1.057-5.378,1.057c-2.3,0-4.304-0.426-5.38-1.057
	c-0.53,0.311-0.839,0.672-0.839,1.057c0,1.17,2.785,2.117,6.22,2.117c3.434,0,6.218-0.947,6.218-2.117
	C23.565,22.903,23.257,22.542,22.726,22.231z"/>
<path fill="#FEBE29" d="M22.726,18.524c-1.074,0.633-3.077,1.059-5.378,1.059c-2.3,0-4.304-0.426-5.38-1.059
	c-0.53,0.313-0.839,0.674-0.839,1.059c0,1.168,2.785,2.117,6.22,2.117c3.434,0,6.218-0.949,6.218-2.117
	C23.565,19.198,23.257,18.836,22.726,18.524z"/>
<path fill="#FEBE29" d="M22.726,14.717c-1.074,0.631-3.077,1.058-5.378,1.058c-2.3,0-4.304-0.427-5.38-1.058
	c-0.53,0.311-0.839,0.671-0.839,1.058c0,1.168,2.785,2.116,6.22,2.116c3.434,0,6.218-0.948,6.218-2.116
	C23.565,15.389,23.257,15.028,22.726,14.717z"/>
</svg>
