<?xml version="1.0" encoding="utf-8"?>
<!-- Generator: Adobe Illustrator 17.0.0, SVG Export Plug-In . SVG Version: 6.00 Build 0)  -->
<!DOCTYPE svg PUBLIC "-//W3C//DTD SVG 1.1//EN" "http://www.w3.org/Graphics/SVG/1.1/DTD/svg11.dtd">
<svg version="1.1" id="Слой_1" xmlns="http://www.w3.org/2000/svg" xmlns:xlink="http://www.w3.org/1999/xlink" x="0px" y="0px"
	 width="35px" height="35px" viewBox="0 0 35 35" enable-background="new 0 0 35 35" xml:space="preserve">
<path fill="#3E5E9A" d="M17.467,0.1L2.414,8.827l0.032,17.4L17.531,34.9l15.054-8.728l-0.032-17.4L17.467,0.1z M23.682,18.88
	l-1.447,2.059l6.268,4.407l-9.255,5.366l-0.242-12.479l10.95-6.381l0.021,11.454L23.682,18.88z M11.685,19.112l-6.647,4.532
	L5.017,12.392l11.47,5.796l0.254,13.075l-9.988-5.742l6.349-4.328L11.685,19.112z M18.876,11.616l-0.154-7.98l9.989,5.743
	l-11.023,5.803L5.928,9.607l10.276-5.958l0.156,8.016L18.876,11.616z"/>
</svg>
